<?xml version="1.0" encoding="UTF-8" standalone="no"?><!DOCTYPE svg PUBLIC "-//W3C//DTD SVG 1.1//EN" "http://www.w3.org/Graphics/SVG/1.1/DTD/svg11.dtd"><svg width="100%" height="100%" viewBox="0 0 78 78" version="1.1" xmlns="http://www.w3.org/2000/svg" xmlns:xlink="http://www.w3.org/1999/xlink" xml:space="preserve" style="fill-rule:evenodd;clip-rule:evenodd;stroke-linejoin:round;stroke-miterlimit:1.41421;"><g id="Group-8-copy"><g id="Ellipse-4"><ellipse cx="38.644" cy="38.632" rx="34.875" ry="34.863" style="fill:#fff;"/><path d="M40.192,73.461l-0.201,0.009l-0.224,0.007l-0.224,0.007l-0.224,0.005l-0.225,0.003l-0.225,0.003l-0.225,0l-0.226,0l-0.225,-0.003l-0.224,-0.003l-0.225,-0.005l-0.224,-0.007l-0.224,-0.007l-0.103,-0.005l0.031,-0.749l0.101,0.004l0.219,0.008l0.219,0.006l0.22,0.005l0.22,0.003l0.22,0.003l0.221,0l0.22,0l0.221,-0.003l0.22,-0.003l0.219,-0.005l0.22,-0.006l0.218,-0.008l0.199,-0.008l0.031,0.749Zm-7.166,-1.176l0.211,0.034l0.212,0.033l0.212,0.032l0.212,0.03l0.213,0.029l0.213,0.028l0.214,0.026l0.214,0.026l0.214,0.023l0.215,0.023l0.215,0.021l0.216,0.02l0.173,0.015l-0.064,0.747l-0.176,-0.015l-0.22,-0.02l-0.22,-0.022l-0.219,-0.023l-0.22,-0.024l-0.218,-0.026l-0.219,-0.027l-0.217,-0.028l-0.218,-0.03l-0.217,-0.031l-0.216,-0.033l-0.217,-0.033l-0.215,-0.036l-0.183,-0.031l0.125,-0.739l0.18,0.031Zm11.637,0.692l-0.064,0.011l-0.215,0.036l-0.216,0.036l-0.216,0.033l-0.217,0.033l-0.217,0.031l-0.217,0.03l-0.218,0.028l-0.218,0.027l-0.219,0.026l-0.219,0.024l-0.22,0.023l-0.22,0.022l-0.22,0.02l-0.078,0.007l-0.064,-0.747l0.076,-0.007l0.215,-0.02l0.215,-0.021l0.215,-0.023l0.215,-0.023l0.214,-0.026l0.213,-0.026l0.213,-0.028l0.213,-0.029l0.213,-0.03l0.211,-0.032l0.212,-0.033l0.211,-0.034l0.211,-0.036l0.061,-0.011l0.13,0.739Zm-15.962,-1.705l0.201,0.061l0.202,0.059l0.202,0.058l0.202,0.057l0.204,0.056l0.203,0.054l0.204,0.054l0.205,0.052l0.205,0.05l0.205,0.05l0.206,0.048l0.207,0.047l0.207,0.046l0.052,0.011l-0.158,0.733l-0.054,-0.011l-0.211,-0.047l-0.211,-0.048l-0.211,-0.049l-0.21,-0.051l-0.21,-0.052l-0.209,-0.053l-0.208,-0.055l-0.209,-0.055l-0.207,-0.057l-0.207,-0.058l-0.207,-0.06l-0.206,-0.06l-0.205,-0.062l-0.136,-0.042l0.221,-0.717l0.133,0.041Zm20.332,0.647l-0.023,0.008l-0.205,0.063l-0.206,0.062l-0.206,0.06l-0.206,0.06l-0.207,0.058l-0.208,0.057l-0.208,0.055l-0.209,0.055l-0.209,0.053l-0.21,0.052l-0.21,0.051l-0.21,0.049l-0.211,0.048l-0.171,0.038l-0.162,-0.733l0.168,-0.037l0.207,-0.047l0.206,-0.048l0.206,-0.05l0.205,-0.05l0.204,-0.052l0.204,-0.054l0.204,-0.054l0.203,-0.056l0.203,-0.057l0.202,-0.058l0.201,-0.059l0.201,-0.061l0.201,-0.061l0.021,-0.007l0.225,0.715Zm-24.427,-2.189l0.189,0.085l0.19,0.084l0.19,0.082l0.191,0.082l0.192,0.08l0.192,0.08l0.193,0.078l0.193,0.077l0.194,0.076l0.195,0.074l0.195,0.074l0.196,0.072l0.196,0.071l0.063,0.023l-0.251,0.706l-0.066,-0.023l-0.2,-0.073l-0.2,-0.074l-0.2,-0.075l-0.199,-0.076l-0.198,-0.078l-0.197,-0.078l-0.197,-0.08l-0.197,-0.081l-0.196,-0.082l-0.195,-0.084l-0.195,-0.084l-0.194,-0.086l-0.193,-0.086l-0.151,-0.069l0.311,-0.683l0.149,0.068Zm28.624,0.574l-0.047,0.022l-0.192,0.088l-0.194,0.086l-0.194,0.086l-0.195,0.084l-0.195,0.084l-0.196,0.082l-0.196,0.081l-0.197,0.08l-0.198,0.078l-0.198,0.078l-0.199,0.076l-0.199,0.075l-0.2,0.074l-0.175,0.064l-0.256,-0.705l0.173,-0.063l0.195,-0.072l0.195,-0.074l0.195,-0.074l0.194,-0.076l0.193,-0.077l0.193,-0.078l0.192,-0.08l0.192,-0.08l0.191,-0.082l0.19,-0.082l0.19,-0.084l0.189,-0.085l0.189,-0.086l0.045,-0.02l0.315,0.68Zm-32.625,-2.716l0.174,0.109l0.176,0.107l0.176,0.106l0.177,0.106l0.178,0.104l0.178,0.103l0.179,0.103l0.18,0.101l0.18,0.1l0.181,0.099l0.182,0.098l0.182,0.097l0.183,0.096l0.183,0.094l0.022,0.011l-0.34,0.669l-0.024,-0.012l-0.187,-0.097l-0.187,-0.098l-0.186,-0.099l-0.186,-0.1l-0.185,-0.101l-0.184,-0.103l-0.184,-0.103l-0.183,-0.105l-0.182,-0.105l-0.182,-0.107l-0.18,-0.107l-0.181,-0.109l-0.179,-0.11l-0.179,-0.111l-0.02,-0.012l0.399,-0.635l0.019,0.011Zm36.578,0.572l-0.103,0.064l-0.179,0.111l-0.179,0.11l-0.18,0.109l-0.181,0.107l-0.182,0.107l-0.182,0.105l-0.183,0.105l-0.183,0.103l-0.185,0.103l-0.185,0.101l-0.185,0.1l-0.186,0.099l-0.187,0.098l-0.125,0.064l-0.344,-0.666l0.123,-0.063l0.182,-0.096l0.183,-0.097l0.181,-0.098l0.181,-0.099l0.181,-0.1l0.179,-0.101l0.179,-0.103l0.179,-0.103l0.177,-0.104l0.177,-0.106l0.176,-0.106l0.176,-0.107l0.175,-0.109l0.101,-0.063l0.399,0.635Zm-40.082,-3.079l0.159,0.129l0.16,0.129l0.161,0.127l0.162,0.126l0.162,0.125l0.163,0.124l0.164,0.124l0.165,0.122l0.165,0.121l0.166,0.121l0.167,0.119l0.168,0.119l0.168,0.117l0.127,0.088l-0.425,0.617l-0.129,-0.088l-0.172,-0.12l-0.171,-0.121l-0.171,-0.122l-0.17,-0.124l-0.169,-0.124l-0.168,-0.125l-0.168,-0.126l-0.166,-0.127l-0.166,-0.128l-0.165,-0.129l-0.165,-0.129l-0.163,-0.131l-0.163,-0.132l-0.092,-0.076l0.476,-0.58l0.09,0.074Zm43.726,0.445l-0.005,0.004l-0.162,0.133l-0.163,0.132l-0.163,0.131l-0.164,0.129l-0.165,0.129l-0.166,0.128l-0.167,0.127l-0.168,0.126l-0.168,0.125l-0.169,0.124l-0.17,0.124l-0.17,0.122l-0.172,0.121l-0.172,0.12l-0.048,0.033l-0.426,-0.618l0.047,-0.032l0.168,-0.117l0.168,-0.119l0.167,-0.119l0.166,-0.121l0.166,-0.121l0.164,-0.122l0.164,-0.124l0.163,-0.124l0.163,-0.125l0.161,-0.126l0.161,-0.127l0.16,-0.129l0.159,-0.129l0.159,-0.129l0.003,-0.003l0.479,0.577Zm-47.022,-3.512l0.141,0.149l0.142,0.148l0.143,0.147l0.143,0.146l0.144,0.145l0.146,0.144l0.146,0.144l0.147,0.142l0.147,0.142l0.149,0.141l0.15,0.14l0.15,0.139l0.151,0.138l0.152,0.137l0.04,0.036l-0.499,0.559l-0.042,-0.037l-0.155,-0.14l-0.155,-0.141l-0.153,-0.142l-0.153,-0.143l-0.152,-0.144l-0.151,-0.145l-0.15,-0.146l-0.149,-0.146l-0.149,-0.148l-0.147,-0.148l-0.147,-0.149l-0.146,-0.15l-0.145,-0.151l-0.143,-0.152l-0.011,-0.011l0.547,-0.513l0.009,0.009Zm50.3,0.433l-0.077,0.082l-0.144,0.152l-0.145,0.151l-0.146,0.15l-0.146,0.149l-0.148,0.148l-0.148,0.148l-0.149,0.146l-0.151,0.146l-0.151,0.145l-0.151,0.144l-0.153,0.143l-0.154,0.142l-0.154,0.141l-0.125,0.112l-0.502,-0.556l0.122,-0.111l0.152,-0.138l0.15,-0.139l0.149,-0.14l0.149,-0.141l0.148,-0.142l0.147,-0.142l0.146,-0.144l0.145,-0.144l0.144,-0.145l0.144,-0.146l0.142,-0.147l0.142,-0.148l0.141,-0.149l0.075,-0.08l0.548,0.513Zm-53.047,-3.741l0.121,0.166l0.122,0.164l0.124,0.164l0.124,0.163l0.125,0.163l0.127,0.161l0.127,0.161l0.128,0.16l0.129,0.159l0.13,0.158l0.131,0.158l0.132,0.157l0.132,0.156l0.103,0.118l-0.569,0.49l-0.103,-0.12l-0.136,-0.16l-0.135,-0.16l-0.133,-0.161l-0.133,-0.162l-0.132,-0.163l-0.131,-0.163l-0.13,-0.164l-0.129,-0.165l-0.128,-0.166l-0.127,-0.167l-0.126,-0.167l-0.125,-0.168l-0.124,-0.169l-0.07,-0.096l0.608,-0.44l0.068,0.093Zm55.904,0.268l-0.003,0.005l-0.123,0.17l-0.124,0.169l-0.126,0.168l-0.126,0.167l-0.127,0.167l-0.128,0.166l-0.129,0.165l-0.13,0.164l-0.131,0.163l-0.131,0.163l-0.133,0.162l-0.134,0.161l-0.135,0.16l-0.135,0.16l-0.041,0.046l-0.568,-0.489l0.039,-0.045l0.133,-0.156l0.132,-0.157l0.13,-0.158l0.13,-0.158l0.13,-0.159l0.128,-0.16l0.127,-0.161l0.126,-0.161l0.125,-0.163l0.125,-0.163l0.123,-0.164l0.122,-0.164l0.122,-0.166l0.12,-0.166l0.002,-0.003l0.61,0.437Zm-58.223,-3.907l0.1,0.18l0.101,0.18l0.102,0.179l0.103,0.178l0.105,0.177l0.105,0.177l0.106,0.176l0.108,0.176l0.108,0.175l0.11,0.174l0.11,0.173l0.112,0.173l0.112,0.172l0.033,0.048l-0.625,0.415l-0.034,-0.051l-0.115,-0.175l-0.114,-0.177l-0.113,-0.177l-0.112,-0.178l-0.111,-0.179l-0.109,-0.179l-0.109,-0.18l-0.108,-0.181l-0.106,-0.181l-0.106,-0.182l-0.104,-0.183l-0.104,-0.184l-0.102,-0.184l-0.099,-0.18l0.658,-0.36l0.098,0.178Zm60.611,0.097l-0.043,0.08l-0.101,0.185l-0.103,0.184l-0.103,0.184l-0.105,0.183l-0.105,0.182l-0.107,0.181l-0.108,0.181l-0.108,0.18l-0.11,0.179l-0.111,0.179l-0.112,0.178l-0.113,0.177l-0.114,0.177l-0.095,0.145l-0.627,-0.411l0.093,-0.143l0.112,-0.173l0.111,-0.173l0.109,-0.174l0.108,-0.175l0.108,-0.176l0.106,-0.176l0.106,-0.177l0.104,-0.177l0.103,-0.178l0.103,-0.179l0.101,-0.18l0.1,-0.18l0.099,-0.181l0.042,-0.078l0.66,0.356Zm-62.539,-4.223l0.076,0.194l0.077,0.193l0.078,0.193l0.079,0.192l0.081,0.191l0.081,0.191l0.083,0.191l0.084,0.19l0.085,0.189l0.086,0.188l0.087,0.188l0.088,0.188l0.089,0.186l0.085,0.174l-0.675,0.328l-0.085,-0.176l-0.091,-0.191l-0.091,-0.191l-0.089,-0.192l-0.088,-0.193l-0.086,-0.193l-0.086,-0.194l-0.084,-0.195l-0.084,-0.195l-0.082,-0.196l-0.081,-0.196l-0.08,-0.197l-0.079,-0.198l-0.077,-0.198l-0.017,-0.044l0.7,-0.269l0.016,0.042Zm64.416,0.136l-0.051,0.135l-0.078,0.198l-0.079,0.198l-0.08,0.197l-0.081,0.196l-0.082,0.196l-0.083,0.195l-0.085,0.195l-0.085,0.194l-0.087,0.193l-0.088,0.193l-0.089,0.192l-0.09,0.191l-0.092,0.191l-0.042,0.088l-0.675,-0.328l0.042,-0.086l0.089,-0.186l0.089,-0.188l0.087,-0.188l0.086,-0.188l0.085,-0.189l0.083,-0.19l0.083,-0.191l0.082,-0.191l0.08,-0.191l0.079,-0.192l0.078,-0.193l0.077,-0.193l0.076,-0.194l0.051,-0.132l0.7,0.268Zm-65.736,-4.333l0.051,0.205l0.052,0.204l0.053,0.204l0.054,0.204l0.056,0.203l0.057,0.203l0.058,0.202l0.06,0.201l0.06,0.201l0.062,0.2l0.063,0.2l0.064,0.2l0.065,0.199l0.05,0.149l-0.711,0.239l-0.051,-0.152l-0.066,-0.203l-0.066,-0.204l-0.064,-0.205l-0.063,-0.204l-0.062,-0.206l-0.061,-0.206l-0.059,-0.206l-0.059,-0.207l-0.056,-0.208l-0.056,-0.208l-0.055,-0.208l-0.053,-0.209l-0.052,-0.21l-0.01,-0.045l0.729,-0.176l0.01,0.043Zm67.068,0.038l-0.034,0.14l-0.052,0.21l-0.053,0.209l-0.054,0.208l-0.056,0.208l-0.057,0.208l-0.058,0.207l-0.06,0.206l-0.06,0.206l-0.062,0.206l-0.063,0.204l-0.065,0.205l-0.065,0.204l-0.067,0.203l-0.02,0.059l-0.711,-0.238l0.019,-0.057l0.066,-0.199l0.064,-0.2l0.063,-0.2l0.061,-0.2l0.061,-0.201l0.059,-0.201l0.058,-0.202l0.057,-0.203l0.056,-0.203l0.054,-0.204l0.054,-0.204l0.052,-0.204l0.05,-0.205l0.034,-0.137l0.729,0.175Zm-67.818,-4.234l0.026,0.213l0.026,0.214l0.028,0.213l0.029,0.213l0.03,0.212l0.032,0.212l0.033,0.211l0.035,0.211l0.035,0.211l0.037,0.21l0.038,0.21l0.04,0.209l0.035,0.181l-0.736,0.144l-0.036,-0.184l-0.04,-0.214l-0.039,-0.214l-0.038,-0.215l-0.036,-0.215l-0.035,-0.216l-0.034,-0.216l-0.033,-0.216l-0.031,-0.217l-0.029,-0.217l-0.029,-0.218l-0.027,-0.218l-0.026,-0.219l-0.02,-0.186l0.745,-0.083l0.02,0.184Zm68.581,-0.197l-0.007,0.063l-0.024,0.219l-0.026,0.219l-0.027,0.218l-0.028,0.218l-0.03,0.217l-0.031,0.217l-0.032,0.216l-0.034,0.216l-0.035,0.216l-0.037,0.215l-0.037,0.215l-0.039,0.214l-0.041,0.214l-0.017,0.089l-0.736,-0.144l0.017,-0.086l0.039,-0.209l0.038,-0.21l0.037,-0.21l0.036,-0.211l0.034,-0.211l0.033,-0.211l0.032,-0.212l0.03,-0.212l0.029,-0.213l0.028,-0.213l0.027,-0.214l0.025,-0.213l0.024,-0.215l0.006,-0.061l0.746,0.079Zm-68.797,-4.379l0,-0.001l-0.003,0.22l-0.003,0.22l0,0.221l0,0.221l0.003,0.22l0.003,0.22l0.005,0.219l0.006,0.219l0.008,0.219l0.009,0.219l0.01,0.218l0.012,0.218l0.013,0.217l0.005,0.081l-0.748,0.05l-0.005,-0.083l-0.014,-0.223l-0.012,-0.222l-0.01,-0.223l-0.01,-0.223l-0.008,-0.224l-0.006,-0.224l-0.005,-0.224l-0.003,-0.225l-0.003,-0.225l0,-0.225l0,-0.225l0.003,-0.225l0.003,-0.225l0,-0.002l0.75,0.017Zm68.987,-0.015l0.004,0.225l0.002,0.225l0.001,0.225l-0.001,0.225l-0.002,0.225l-0.004,0.225l-0.005,0.224l-0.006,0.224l-0.008,0.224l-0.009,0.223l-0.011,0.223l-0.012,0.222l-0.012,0.209l-0.749,-0.045l0.012,-0.206l0.012,-0.218l0.011,-0.218l0.009,-0.219l0.007,-0.219l0.007,-0.219l0.004,-0.219l0.004,-0.22l0.002,-0.22l0.001,-0.221l-0.001,-0.221l-0.002,-0.22l-0.004,-0.22l-0.002,-0.097l0.75,-0.016l0.002,0.099Zm-68.622,-4.372l-0.01,0.066l-0.03,0.212l-0.029,0.213l-0.028,0.213l-0.026,0.213l-0.026,0.214l-0.023,0.215l-0.023,0.214l-0.021,0.216l-0.02,0.215l-0.019,0.216l-0.017,0.216l-0.016,0.217l-0.014,0.217l-0.004,0.059l-0.748,-0.045l0.004,-0.062l0.014,-0.221l0.016,-0.222l0.018,-0.221l0.019,-0.22l0.02,-0.221l0.022,-0.219l0.023,-0.22l0.024,-0.219l0.026,-0.219l0.027,-0.218l0.029,-0.218l0.029,-0.217l0.031,-0.217l0.011,-0.068l0.741,0.111Zm68.259,-0.043l0.031,0.217l0.03,0.217l0.028,0.218l0.027,0.218l0.026,0.219l0.024,0.219l0.024,0.22l0.021,0.219l0.02,0.221l0.019,0.22l0.018,0.221l0.016,0.222l0.013,0.186l-0.749,0.05l-0.012,-0.184l-0.016,-0.217l-0.017,-0.216l-0.019,-0.216l-0.019,-0.215l-0.022,-0.216l-0.022,-0.214l-0.024,-0.215l-0.025,-0.214l-0.027,-0.213l-0.028,-0.213l-0.029,-0.213l-0.03,-0.212l-0.024,-0.162l0.741,-0.112l0.025,0.165Zm-67.331,-4.257l-0.004,0.012l-0.057,0.203l-0.056,0.203l-0.054,0.204l-0.053,0.204l-0.052,0.204l-0.051,0.205l-0.05,0.206l-0.048,0.205l-0.047,0.207l-0.046,0.207l-0.044,0.207l-0.043,0.208l-0.043,0.208l-0.033,0.171l-0.736,-0.144l0.034,-0.173l0.043,-0.212l0.044,-0.213l0.046,-0.212l0.046,-0.211l0.048,-0.211l0.05,-0.211l0.05,-0.21l0.052,-0.21l0.053,-0.209l0.055,-0.208l0.056,-0.208l0.056,-0.208l0.059,-0.207l0.004,-0.014l0.721,0.207Zm66.377,-0.193l0.058,0.207l0.057,0.208l0.056,0.208l0.054,0.208l0.053,0.209l0.052,0.21l0.051,0.21l0.049,0.211l0.048,0.211l0.047,0.211l0.045,0.212l0.045,0.213l0.043,0.212l0.015,0.078l-0.736,0.143l-0.015,-0.075l-0.042,-0.208l-0.043,-0.208l-0.045,-0.207l-0.046,-0.207l-0.047,-0.207l-0.048,-0.205l-0.05,-0.206l-0.05,-0.205l-0.052,-0.204l-0.054,-0.204l-0.054,-0.204l-0.056,-0.203l-0.057,-0.203l-0.03,-0.105l0.721,-0.208l0.031,0.108Zm-64.9,-3.951l-0.012,0.028l-0.081,0.19l-0.081,0.192l-0.079,0.192l-0.078,0.193l-0.077,0.193l-0.076,0.194l-0.075,0.195l-0.073,0.195l-0.072,0.195l-0.072,0.196l-0.07,0.197l-0.069,0.197l-0.067,0.198l-0.063,0.187l-0.711,-0.238l0.063,-0.19l0.07,-0.202l0.07,-0.201l0.072,-0.202l0.072,-0.2l0.074,-0.2l0.076,-0.199l0.076,-0.199l0.077,-0.198l0.079,-0.198l0.08,-0.197l0.081,-0.196l0.082,-0.196l0.084,-0.195l0.012,-0.03l0.688,0.299Zm63.398,-0.269l0.083,0.195l0.082,0.196l0.081,0.196l0.08,0.197l0.079,0.198l0.078,0.198l0.076,0.199l0.075,0.199l0.074,0.2l0.073,0.2l0.071,0.202l0.071,0.201l0.069,0.202l0.033,0.097l-0.711,0.239l-0.032,-0.095l-0.068,-0.198l-0.069,-0.197l-0.07,-0.197l-0.071,-0.196l-0.073,-0.195l-0.073,-0.195l-0.075,-0.195l-0.076,-0.194l-0.077,-0.193l-0.078,-0.193l-0.079,-0.192l-0.08,-0.192l-0.082,-0.19l-0.051,-0.117l0.688,-0.299l0.052,0.119Zm-61.395,-3.65l-0.048,0.081l-0.105,0.177l-0.103,0.178l-0.102,0.179l-0.101,0.18l-0.1,0.18l-0.1,0.181l-0.098,0.182l-0.097,0.182l-0.095,0.183l-0.095,0.183l-0.094,0.184l-0.093,0.185l-0.091,0.186l-0.07,0.143l-0.674,-0.327l0.07,-0.146l0.094,-0.19l0.095,-0.189l0.095,-0.188l0.097,-0.187l0.098,-0.187l0.099,-0.187l0.101,-0.185l0.101,-0.185l0.102,-0.184l0.104,-0.184l0.104,-0.183l0.106,-0.182l0.106,-0.181l0.049,-0.083l0.645,0.384Zm59.385,-0.301l0.107,0.181l0.105,0.182l0.105,0.183l0.103,0.184l0.103,0.184l0.101,0.185l0.1,0.185l0.099,0.187l0.098,0.187l0.097,0.187l0.096,0.188l0.094,0.189l0.094,0.19l0.028,0.058l-0.674,0.328l-0.028,-0.056l-0.091,-0.186l-0.093,-0.185l-0.093,-0.184l-0.095,-0.183l-0.096,-0.183l-0.097,-0.182l-0.098,-0.182l-0.099,-0.181l-0.1,-0.18l-0.101,-0.18l-0.103,-0.179l-0.103,-0.178l-0.104,-0.177l-0.098,-0.165l0.644,-0.384l0.099,0.167Zm-56.894,-3.329l-0.115,0.146l-0.125,0.163l-0.124,0.163l-0.124,0.164l-0.122,0.164l-0.121,0.166l-0.121,0.166l-0.119,0.167l-0.119,0.167l-0.117,0.168l-0.117,0.17l-0.115,0.169l-0.115,0.171l-0.114,0.171l-0.045,0.07l-0.628,-0.411l0.047,-0.071l0.116,-0.175l0.117,-0.175l0.118,-0.173l0.119,-0.173l0.12,-0.172l0.122,-0.171l0.122,-0.171l0.123,-0.17l0.124,-0.169l0.125,-0.168l0.126,-0.167l0.127,-0.167l0.128,-0.166l0.116,-0.148l0.591,0.462Zm54.287,-0.479l0.129,0.165l0.128,0.166l0.127,0.167l0.126,0.167l0.126,0.168l0.124,0.169l0.123,0.17l0.122,0.171l0.121,0.171l0.12,0.172l0.119,0.173l0.118,0.173l0.117,0.175l0.11,0.165l-0.625,0.414l-0.109,-0.163l-0.114,-0.171l-0.116,-0.169l-0.116,-0.17l-0.118,-0.168l-0.118,-0.167l-0.12,-0.167l-0.12,-0.166l-0.122,-0.166l-0.122,-0.164l-0.123,-0.164l-0.125,-0.163l-0.125,-0.163l-0.126,-0.161l-0.046,-0.058l0.588,-0.465l0.047,0.059Zm-51.354,-2.799l-0.058,0.057l-0.146,0.144l-0.144,0.145l-0.143,0.146l-0.143,0.147l-0.142,0.148l-0.141,0.149l-0.14,0.149l-0.139,0.15l-0.138,0.151l-0.137,0.152l-0.137,0.153l-0.135,0.154l-0.135,0.154l-0.127,0.147l-0.568,-0.489l0.128,-0.149l0.138,-0.158l0.138,-0.157l0.14,-0.156l0.14,-0.155l0.141,-0.155l0.142,-0.153l0.144,-0.153l0.143,-0.152l0.145,-0.151l0.146,-0.15l0.147,-0.149l0.147,-0.148l0.149,-0.148l0.059,-0.058l0.526,0.535Zm48.429,-0.477l0.148,0.148l0.148,0.148l0.146,0.149l0.146,0.15l0.145,0.151l0.144,0.152l0.143,0.153l0.142,0.153l0.141,0.155l0.141,0.155l0.139,0.156l0.138,0.157l0.138,0.158l0.065,0.075l-0.569,0.489l-0.063,-0.073l-0.134,-0.154l-0.136,-0.154l-0.136,-0.153l-0.138,-0.152l-0.138,-0.151l-0.139,-0.15l-0.14,-0.149l-0.141,-0.149l-0.142,-0.148l-0.142,-0.147l-0.144,-0.146l-0.144,-0.145l-0.145,-0.144l-0.128,-0.125l0.526,-0.535l0.129,0.126Zm-45.098,-2.403l-0.148,0.113l-0.162,0.125l-0.162,0.126l-0.161,0.127l-0.16,0.128l-0.159,0.129l-0.158,0.13l-0.158,0.131l-0.157,0.132l-0.156,0.133l-0.155,0.133l-0.155,0.135l-0.153,0.136l-0.153,0.136l-0.065,0.059l-0.503,-0.557l0.067,-0.06l0.156,-0.14l0.157,-0.138l0.158,-0.137l0.158,-0.137l0.16,-0.136l0.16,-0.134l0.161,-0.134l0.162,-0.133l0.163,-0.132l0.163,-0.131l0.165,-0.129l0.165,-0.129l0.166,-0.128l0.149,-0.114l0.455,0.596Zm41.619,-0.609l0.167,0.127l0.166,0.128l0.165,0.129l0.164,0.129l0.163,0.131l0.163,0.132l0.162,0.133l0.161,0.134l0.16,0.134l0.16,0.136l0.159,0.137l0.157,0.137l0.157,0.138l0.151,0.135l-0.499,0.56l-0.149,-0.133l-0.154,-0.136l-0.154,-0.135l-0.156,-0.133l-0.156,-0.133l-0.157,-0.132l-0.157,-0.131l-0.159,-0.13l-0.159,-0.129l-0.16,-0.128l-0.161,-0.127l-0.161,-0.126l-0.163,-0.125l-0.163,-0.124l-0.058,-0.045l0.451,-0.599l0.06,0.046Zm-37.951,-1.817l-0.057,0.033l-0.178,0.103l-0.178,0.104l-0.177,0.106l-0.176,0.106l-0.176,0.107l-0.174,0.109l-0.175,0.109l-0.173,0.111l-0.173,0.111l-0.172,0.113l-0.171,0.113l-0.171,0.115l-0.17,0.115l-0.162,0.112l-0.425,-0.618l0.164,-0.113l0.173,-0.118l0.175,-0.117l0.175,-0.116l0.176,-0.115l0.176,-0.114l0.177,-0.113l0.178,-0.111l0.179,-0.111l0.179,-0.11l0.181,-0.109l0.18,-0.107l0.182,-0.107l0.182,-0.106l0.059,-0.033l0.372,0.651Zm34.276,-0.618l0.182,0.106l0.182,0.107l0.181,0.107l0.18,0.109l0.179,0.11l0.179,0.111l0.178,0.111l0.177,0.113l0.177,0.114l0.176,0.115l0.175,0.116l0.174,0.117l0.174,0.118l0.084,0.058l-0.426,0.618l-0.082,-0.057l-0.17,-0.115l-0.17,-0.115l-0.172,-0.113l-0.172,-0.113l-0.173,-0.111l-0.173,-0.111l-0.174,-0.109l-0.175,-0.109l-0.176,-0.107l-0.176,-0.106l-0.177,-0.106l-0.177,-0.104l-0.179,-0.103l-0.141,-0.081l0.372,-0.651l0.143,0.081Zm-30.323,-1.317l-0.116,0.048l-0.192,0.08l-0.191,0.081l-0.19,0.083l-0.19,0.084l-0.189,0.085l-0.189,0.086l-0.188,0.087l-0.187,0.088l-0.187,0.089l-0.186,0.091l-0.185,0.091l-0.185,0.093l-0.185,0.094l-0.104,0.053l-0.344,-0.666l0.106,-0.055l0.189,-0.096l0.189,-0.094l0.189,-0.094l0.191,-0.092l0.19,-0.091l0.192,-0.091l0.192,-0.089l0.193,-0.088l0.193,-0.086l0.194,-0.086l0.195,-0.084l0.195,-0.084l0.196,-0.082l0.118,-0.048l0.286,0.693Zm26.147,-0.726l0.196,0.081l0.196,0.082l0.195,0.084l0.195,0.084l0.194,0.086l0.194,0.086l0.192,0.088l0.192,0.089l0.192,0.091l0.191,0.091l0.19,0.092l0.19,0.094l0.189,0.094l0.188,0.096l0.02,0.01l-0.344,0.667l-0.018,-0.009l-0.184,-0.094l-0.185,-0.093l-0.186,-0.091l-0.186,-0.091l-0.187,-0.089l-0.187,-0.088l-0.188,-0.087l-0.189,-0.086l-0.189,-0.085l-0.19,-0.084l-0.19,-0.083l-0.191,-0.081l-0.192,-0.08l-0.192,-0.08l-0.009,-0.003l0.282,-0.695l0.011,0.004Zm-21.979,-0.681l-0.13,0.035l-0.204,0.056l-0.202,0.057l-0.202,0.058l-0.202,0.059l-0.201,0.061l-0.2,0.061l-0.2,0.063l-0.2,0.064l-0.199,0.066l-0.198,0.066l-0.198,0.068l-0.197,0.069l-0.197,0.07l-0.07,0.025l-0.255,-0.705l0.071,-0.026l0.201,-0.072l0.202,-0.07l0.202,-0.069l0.203,-0.068l0.203,-0.067l0.204,-0.065l0.205,-0.065l0.205,-0.063l0.205,-0.062l0.206,-0.06l0.207,-0.06l0.207,-0.058l0.207,-0.057l0.133,-0.035l0.194,0.724Zm17.722,-0.745l0.208,0.056l0.208,0.057l0.207,0.058l0.206,0.06l0.206,0.06l0.206,0.062l0.205,0.063l0.204,0.065l0.204,0.065l0.203,0.067l0.203,0.068l0.202,0.069l0.202,0.07l0.181,0.065l-0.251,0.706l-0.179,-0.063l-0.198,-0.069l-0.197,-0.068l-0.199,-0.066l-0.199,-0.066l-0.199,-0.064l-0.2,-0.063l-0.201,-0.061l-0.201,-0.061l-0.201,-0.059l-0.202,-0.058l-0.203,-0.057l-0.203,-0.056l-0.204,-0.054l-0.016,-0.005l0.189,-0.725l0.019,0.004Zm-13.408,-0.109l-0.07,0.009l-0.213,0.029l-0.212,0.03l-0.212,0.032l-0.212,0.033l-0.211,0.034l-0.21,0.036l-0.21,0.037l-0.21,0.038l-0.209,0.04l-0.209,0.04l-0.209,0.042l-0.208,0.044l-0.207,0.044l-0.086,0.019l-0.162,-0.732l0.088,-0.02l0.212,-0.045l0.213,-0.044l0.213,-0.043l0.213,-0.042l0.214,-0.04l0.215,-0.039l0.214,-0.038l0.216,-0.036l0.215,-0.036l0.217,-0.033l0.216,-0.033l0.217,-0.031l0.218,-0.03l0.072,-0.009l0.097,0.744Zm9.145,-0.735l0.217,0.03l0.217,0.031l0.217,0.033l0.216,0.033l0.216,0.036l0.215,0.036l0.215,0.038l0.214,0.039l0.214,0.04l0.214,0.042l0.213,0.043l0.212,0.044l0.206,0.044l-0.158,0.733l-0.203,-0.043l-0.208,-0.044l-0.208,-0.042l-0.209,-0.04l-0.209,-0.04l-0.21,-0.038l-0.21,-0.037l-0.211,-0.036l-0.211,-0.034l-0.212,-0.033l-0.211,-0.032l-0.213,-0.03l-0.213,-0.029l-0.167,-0.022l0.097,-0.744l0.17,0.022Zm-4.752,0.442l-0.126,0l-0.22,0.003l-0.22,0.003l-0.22,0.005l-0.219,0.006l-0.219,0.008l-0.219,0.009l-0.218,0.01l-0.218,0.012l-0.217,0.013l-0.217,0.014l-0.217,0.016l-0.216,0.017l-0.189,0.017l-0.064,-0.748l0.191,-0.016l0.221,-0.018l0.222,-0.016l0.221,-0.015l0.223,-0.013l0.222,-0.012l0.223,-0.011l0.223,-0.009l0.224,-0.008l0.224,-0.006l0.225,-0.005l0.224,-0.003l0.225,-0.003l0.128,0l0.003,0.75Zm0.32,-0.75l0.225,0.003l0.225,0.003l0.224,0.005l0.224,0.006l0.224,0.008l0.223,0.009l0.223,0.011l0.223,0.012l0.222,0.013l0.222,0.015l0.221,0.016l0.221,0.018l0.094,0.008l-0.064,0.747l-0.091,-0.008l-0.217,-0.017l-0.216,-0.016l-0.217,-0.014l-0.218,-0.013l-0.218,-0.012l-0.218,-0.01l-0.219,-0.009l-0.218,-0.008l-0.22,-0.006l-0.219,-0.005l-0.22,-0.003l-0.221,-0.003l-0.223,0l0.003,-0.75l0.225,0Z" style="fill:#aab3bd;"/></g><path id="Shape-6" d="M48.217,21.017c0.805,0 1.459,0.759 1.459,1.692l0,9.337c0.131,-0.006 0.265,-0.014 0.405,-0.023c1.024,-0.063 2.299,-0.142 2.946,1.127c0.304,0.597 0.321,1.201 0.05,1.748c-0.297,0.597 -0.925,1.121 -1.867,1.555c-0.586,0.27 -1.179,0.448 -1.534,0.528l0,0.309c0.159,-0.036 0.323,-0.055 0.489,-0.055c0.71,0 1.384,0.347 1.802,0.927c0.724,1.006 0.506,2.422 -0.486,3.156l-0.335,0.248c0.541,0.1 1.009,0.387 1.323,0.822c0.357,0.496 0.474,1.12 0.329,1.758c-0.14,0.617 -0.512,1.174 -1.046,1.569l-0.807,0.597c0.435,0.123 0.822,0.392 1.09,0.771c0.311,0.439 0.434,0.975 0.347,1.508c-0.086,0.534 -0.373,1.001 -0.807,1.316l-0.643,0.466c-0.341,0.248 -0.743,0.379 -1.161,0.379c-0.031,0 -0.062,-0.001 -0.093,-0.002l-0.002,0.414c0,0.022 -0.002,0.043 -0.006,0.065c-0.066,0.861 -0.692,1.539 -1.453,1.54l-4.772,0c-0.007,0.024 -0.017,0.047 -0.028,0.069c-0.976,1.885 -2.914,3.305 -4.681,4.447c-0.926,0.598 -1.771,0.937 -2.589,1.265c-0.59,0.237 -1.148,0.461 -1.724,0.775c-0.543,0.294 -0.836,0.588 -1.323,1.074c-0.073,0.074 -0.15,0.151 -0.232,0.232c-0.075,0.074 -0.172,0.111 -0.269,0.111c-0.1,0 -0.2,-0.039 -0.275,-0.117c-0.148,-0.154 -0.145,-0.401 0.006,-0.551c0.082,-0.08 0.158,-0.157 0.23,-0.229c0.499,-0.499 0.859,-0.859 1.5,-1.207c0.615,-0.334 1.219,-0.577 1.804,-0.812c0.784,-0.315 1.595,-0.64 2.459,-1.198c1.585,-1.024 3.31,-2.276 4.251,-3.859l-8.118,0c-0.805,-0.001 -1.46,-0.76 -1.46,-1.693l0.007,-7.882c0,-0.017 0.001,-0.034 0.004,-0.05c-0.004,-0.023 -0.007,-0.046 -0.007,-0.07c0,-1.558 0.328,-2.598 0.742,-3.914c0.312,-0.991 0.666,-2.114 0.974,-3.752c0.123,-0.653 -0.001,-1.885 -0.302,-2.996c-0.348,-1.291 -0.867,-2.246 -1.422,-2.619c-0.366,-0.247 -0.734,-0.228 -1.159,0.058c-0.448,0.302 -0.398,1.402 -0.358,2.286c0.024,0.531 0.047,1.033 -0.026,1.409c-0.576,2.967 -1.921,5.454 -3.107,7.649c-1.037,1.92 -1.934,3.578 -2.019,5.037c-0.093,1.602 -0.214,2.832 -0.528,4.016c-0.36,1.355 -0.945,2.513 -1.842,3.645c-0.076,0.096 -0.187,0.146 -0.3,0.146c-0.084,0 -0.169,-0.028 -0.24,-0.086c-0.166,-0.134 -0.192,-0.38 -0.059,-0.547c1.785,-2.254 2.039,-4.414 2.202,-7.22c0.095,-1.633 1.03,-3.363 2.112,-5.366c1.159,-2.144 2.473,-4.575 3.026,-7.425c0.055,-0.284 0.035,-0.739 0.013,-1.222c-0.051,-1.137 -0.109,-2.425 0.7,-2.97c0.631,-0.425 1.176,-0.419 1.595,-0.27l-0.006,-6.224c0,-0.933 0.655,-1.692 1.46,-1.692l13.761,0Zm-13.577,27.69c-0.213,0 -0.385,-0.174 -0.385,-0.389l0,-8.216c-0.291,0.968 -0.486,1.807 -0.486,2.972c0,0.017 -0.002,0.034 -0.004,0.051c0.004,0.023 0.007,0.046 0.007,0.07l-0.007,7.882c0,0.503 0.31,0.913 0.691,0.913l13.761,0c0.381,-0.001 0.691,-0.41 0.691,-0.914c0,-0.002 0,-0.003 0,-0.005l0.001,-0.517c-0.3,-0.145 -0.564,-0.366 -0.763,-0.647c-0.25,-0.354 -0.379,-0.771 -0.374,-1.2l-13.132,0Zm8.597,1.054c0.212,0 0.384,0.174 0.384,0.389c0,0.215 -0.172,0.389 -0.384,0.39l-3.801,0c-0.212,0 -0.384,-0.175 -0.384,-0.39c0,-0.215 0.171,-0.389 0.384,-0.389l3.801,0Zm8.173,-2.224c0.192,0.27 0.267,0.6 0.214,0.928c-0.053,0.328 -0.23,0.615 -0.496,0.808l-0.643,0.467c-0.21,0.153 -0.457,0.233 -0.714,0.233c-0.396,0 -0.77,-0.194 -1,-0.519c-0.191,-0.271 -0.267,-0.6 -0.213,-0.928c0.053,-0.328 0.229,-0.615 0.496,-0.809l0.643,-0.467c0.21,-0.152 0.457,-0.233 0.714,-0.233c0.396,0 0.769,0.195 0.999,0.52Zm-3.762,-23.147l-12.624,0l0,7.368c0.052,0.162 0.096,0.313 0.132,0.448c0.338,1.252 0.462,2.566 0.315,3.347c-0.146,0.775 -0.301,1.436 -0.457,2.022c0.006,0.028 0.01,0.058 0.01,0.088l0,10.265l12.911,0c0.111,-0.262 0.276,-0.498 0.486,-0.692c-0.565,-0.089 -1.056,-0.381 -1.381,-0.832c-0.357,-0.496 -0.474,-1.12 -0.329,-1.758c0.14,-0.616 0.512,-1.173 1.046,-1.569l0.696,-0.515c-0.505,-0.126 -0.959,-0.428 -1.27,-0.861c-0.351,-0.487 -0.494,-1.084 -0.402,-1.68c0.09,-0.588 0.398,-1.105 0.867,-1.461l0,-14.17Zm4.2,18.458c0.224,0.31 0.295,0.709 0.201,1.123c-0.099,0.434 -0.365,0.83 -0.75,1.115l-1.367,1.011c-0.34,0.251 -0.744,0.39 -1.137,0.39c-0.472,0 -0.886,-0.198 -1.134,-0.542c-0.224,-0.311 -0.295,-0.71 -0.201,-1.124c0.099,-0.434 0.365,-0.83 0.75,-1.115l1.367,-1.011c0.34,-0.251 0.744,-0.39 1.137,-0.39c0.473,0 0.886,0.198 1.134,0.543Zm-0.502,-4.226c0.475,0.659 0.332,1.586 -0.319,2.067l-1.183,0.876c-0.252,0.186 -0.549,0.284 -0.859,0.284c-0.466,0 -0.907,-0.227 -1.182,-0.607c-0.23,-0.319 -0.323,-0.71 -0.263,-1.101c0.06,-0.39 0.267,-0.734 0.582,-0.967l1.183,-0.875c0.252,-0.186 0.549,-0.285 0.86,-0.285c0.465,0 0.907,0.227 1.181,0.608Zm-3.129,-16.826l-13.761,0c-0.381,0 -0.691,0.41 -0.691,0.913l0.007,6.729c0.179,0.179 0.339,0.387 0.483,0.611l0,-6.049c0,-0.214 0.172,-0.389 0.385,-0.389l13.393,0c0.213,0 0.384,0.175 0.384,0.389l0,13.991l0.435,-0.321c0.018,-0.014 0.037,-0.027 0.056,-0.04l0,-14.921c0,-0.257 -0.081,-0.495 -0.226,-0.671c-0.128,-0.156 -0.293,-0.242 -0.465,-0.242Zm1.911,11.005c1.119,-0.07 1.827,-0.057 2.216,0.706c0.192,0.377 0.207,0.717 0.046,1.041c-0.213,0.429 -0.731,0.842 -1.498,1.196c-0.474,0.218 -0.923,0.358 -1.216,0.435l0,-3.354c0.151,-0.006 0.303,-0.015 0.452,-0.024Zm-7.841,-10.415c0.212,0 0.384,0.174 0.384,0.389c0,0.215 -0.172,0.389 -0.384,0.389l-1.901,0c-0.212,0 -0.384,-0.174 -0.384,-0.389c0,-0.215 0.171,-0.389 0.384,-0.389l1.901,0Z" style="fill:#00b440;"/></g></svg>