<?xml version="1.0" encoding="UTF-8" standalone="no"?><!DOCTYPE svg PUBLIC "-//W3C//DTD SVG 1.1//EN" "http://www.w3.org/Graphics/SVG/1.1/DTD/svg11.dtd"><svg width="100%" height="100%" viewBox="0 0 123 123" version="1.1" xmlns="http://www.w3.org/2000/svg" xmlns:xlink="http://www.w3.org/1999/xlink" xml:space="preserve" style="fill-rule:evenodd;clip-rule:evenodd;stroke-linejoin:round;stroke-miterlimit:1.41421;"><g id="ad"><circle id="Ellipse-2" cx="61.125" cy="60.375" r="47.625" style="fill:none;stroke:#00ad00;stroke-width:0.75px;"/><path id="Shape-1" d="M62.906,71.531l0,5.031l15.094,0l0,1.438l-34.5,0l0,-1.438l15.094,0l0,-5.031l4.312,0Zm-13.656,-25.156l0,1.437l-4.313,0l0,20.844l31.625,0l0,-20.844l-4.312,0l0,-1.437l5.75,0l0,23.718l-34.5,0l0,-23.718l5.75,0Zm19.406,18.687l3.594,0l0,-3.594l1.437,0l0,5.032l-5.031,0l0,-1.438Zm-11.5,-1.437l-1.437,0l0,-6.469c0,-1.189 0.967,-2.156 2.156,-2.156c1.189,0 2.156,0.967 2.156,2.156l0,6.469l-1.437,0l0,-2.157l-1.438,0l0,2.157Zm6.469,-8.625c1.19,0.001 2.156,0.967 2.156,2.156l0,4.312c0,1.189 -0.966,2.156 -2.156,2.157l-2.156,0l0,-8.625l2.156,0Zm0,7.187c0.397,0 0.719,-0.323 0.719,-0.719l0,-4.312c0,-0.396 -0.323,-0.719 -0.719,-0.719l-0.719,0l0,5.75l0.719,0Zm-5.031,-2.156l0,-2.875c0,-0.396 -0.323,-0.719 -0.719,-0.719c-0.396,0 -0.719,0.323 -0.719,0.719l0,2.875l1.438,0Zm-5.75,-7.906l0,1.437l-3.594,0l0,3.594l-1.438,0l0,-5.031l5.032,0Zm-2.157,-5.75l1.438,0l0,-1.438l-8.625,0l0,-1.437l34.5,0l0,1.437l-8.625,0l0,1.438l1.437,0l0,4.312l-4.312,0l0,-4.312l1.437,0l0,-1.438l-14.375,0l0,1.438l1.438,0l0,4.312l-4.313,0l0,-4.312Zm5.75,0l8.625,0l0,1.437l-8.625,0l0,-1.437Z" style="fill:#00ad41;"/></g></svg>