<?xml version="1.0" encoding="UTF-8" standalone="no"?><!DOCTYPE svg PUBLIC "-//W3C//DTD SVG 1.1//EN" "http://www.w3.org/Graphics/SVG/1.1/DTD/svg11.dtd"><svg width="100%" height="100%" viewBox="0 0 78 78" version="1.1" xmlns="http://www.w3.org/2000/svg" xmlns:xlink="http://www.w3.org/1999/xlink" xml:space="preserve" style="fill-rule:evenodd;clip-rule:evenodd;stroke-linejoin:round;stroke-miterlimit:1.41421;"><g id="Group-8-copy-3"><g id="Ellipse-4"><ellipse cx="38.644" cy="38.62" rx="34.875" ry="34.852" style="fill:#fff;"/><path d="M40.173,73.439l-0.182,0.007l-0.224,0.008l-0.224,0.006l-0.224,0.005l-0.225,0.004l-0.225,0.002l-0.225,0.001l-0.226,-0.001l-0.225,-0.002l-0.224,-0.004l-0.225,-0.005l-0.224,-0.006l-0.224,-0.008l-0.122,-0.005l0.031,-0.749l0.12,0.005l0.219,0.007l0.219,0.007l0.22,0.005l0.22,0.003l0.22,0.002l0.221,0.001l0.22,-0.001l0.221,-0.002l0.22,-0.003l0.219,-0.005l0.22,-0.007l0.218,-0.007l0.181,-0.008l0.03,0.75Zm-7.147,-1.178l0.211,0.035l0.212,0.033l0.212,0.031l0.212,0.031l0.213,0.029l0.213,0.028l0.214,0.026l0.214,0.025l0.214,0.024l0.215,0.023l0.215,0.021l0.216,0.02l0.154,0.013l-0.064,0.747l-0.157,-0.013l-0.22,-0.021l-0.22,-0.021l-0.219,-0.023l-0.22,-0.025l-0.218,-0.025l-0.219,-0.027l-0.217,-0.029l-0.218,-0.03l-0.217,-0.031l-0.216,-0.032l-0.217,-0.034l-0.215,-0.035l-0.201,-0.034l0.125,-0.739l0.198,0.033Zm11.618,0.696l-0.045,0.008l-0.215,0.036l-0.216,0.035l-0.216,0.034l-0.217,0.032l-0.217,0.031l-0.217,0.03l-0.218,0.029l-0.218,0.027l-0.219,0.025l-0.219,0.025l-0.22,0.023l-0.22,0.021l-0.22,0.021l-0.097,0.008l-0.064,-0.747l0.095,-0.008l0.215,-0.02l0.216,-0.021l0.214,-0.023l0.215,-0.024l0.214,-0.025l0.213,-0.026l0.213,-0.028l0.213,-0.029l0.213,-0.031l0.212,-0.031l0.211,-0.033l0.211,-0.035l0.211,-0.035l0.043,-0.008l0.129,0.739Zm-15.943,-1.708l0.201,0.061l0.202,0.059l0.202,0.058l0.202,0.057l0.203,0.056l0.204,0.054l0.204,0.053l0.205,0.052l0.205,0.051l0.205,0.05l0.206,0.048l0.207,0.047l0.207,0.046l0.033,0.007l-0.157,0.733l-0.036,-0.007l-0.211,-0.047l-0.211,-0.048l-0.211,-0.05l-0.21,-0.05l-0.21,-0.052l-0.209,-0.053l-0.208,-0.055l-0.209,-0.055l-0.207,-0.057l-0.207,-0.058l-0.207,-0.06l-0.206,-0.06l-0.205,-0.062l-0.154,-0.047l0.221,-0.717l0.151,0.046Zm20.315,0.653l-0.006,0.002l-0.205,0.063l-0.206,0.062l-0.206,0.06l-0.206,0.06l-0.207,0.058l-0.208,0.057l-0.208,0.055l-0.209,0.055l-0.209,0.053l-0.21,0.052l-0.21,0.05l-0.21,0.05l-0.211,0.048l-0.189,0.041l-0.162,-0.732l0.186,-0.041l0.207,-0.047l0.206,-0.048l0.206,-0.05l0.205,-0.051l0.204,-0.052l0.204,-0.053l0.204,-0.054l0.203,-0.056l0.203,-0.057l0.202,-0.058l0.201,-0.059l0.201,-0.061l0.201,-0.061l0.004,-0.002l0.225,0.716Zm-24.41,-2.194l0.189,0.085l0.19,0.083l0.19,0.083l0.191,0.081l0.192,0.081l0.192,0.079l0.193,0.078l0.193,0.077l0.194,0.076l0.195,0.075l0.195,0.073l0.196,0.072l0.196,0.071l0.046,0.017l-0.252,0.706l-0.048,-0.017l-0.2,-0.072l-0.2,-0.074l-0.2,-0.075l-0.199,-0.077l-0.198,-0.077l-0.197,-0.079l-0.197,-0.08l-0.197,-0.081l-0.196,-0.082l-0.195,-0.083l-0.195,-0.085l-0.194,-0.085l-0.193,-0.087l-0.168,-0.076l0.311,-0.683l0.166,0.076Zm28.608,0.581l-0.031,0.014l-0.192,0.088l-0.194,0.087l-0.194,0.085l-0.195,0.085l-0.195,0.083l-0.196,0.082l-0.196,0.081l-0.197,0.08l-0.198,0.079l-0.198,0.077l-0.199,0.077l-0.199,0.075l-0.2,0.074l-0.192,0.069l-0.256,-0.705l0.19,-0.069l0.195,-0.072l0.196,-0.073l0.194,-0.075l0.194,-0.076l0.193,-0.077l0.193,-0.078l0.192,-0.079l0.192,-0.081l0.191,-0.081l0.19,-0.083l0.19,-0.083l0.19,-0.085l0.188,-0.086l0.028,-0.013l0.316,0.68Zm-32.61,-2.723l0.175,0.109l0.176,0.107l0.176,0.107l0.177,0.105l0.178,0.104l0.178,0.103l0.179,0.103l0.18,0.101l0.18,0.1l0.181,0.099l0.182,0.098l0.182,0.097l0.183,0.095l0.183,0.095l0.005,0.003l-0.34,0.668l-0.007,-0.003l-0.187,-0.097l-0.187,-0.098l-0.186,-0.099l-0.186,-0.1l-0.185,-0.101l-0.184,-0.103l-0.184,-0.103l-0.183,-0.104l-0.182,-0.106l-0.182,-0.106l-0.18,-0.108l-0.181,-0.109l-0.179,-0.109l-0.179,-0.111l-0.036,-0.023l0.399,-0.635l0.034,0.021Zm36.564,0.582l-0.088,0.055l-0.179,0.111l-0.179,0.109l-0.18,0.109l-0.181,0.108l-0.182,0.106l-0.182,0.106l-0.183,0.104l-0.183,0.103l-0.185,0.103l-0.185,0.101l-0.185,0.1l-0.186,0.099l-0.187,0.098l-0.141,0.072l-0.344,-0.666l0.139,-0.072l0.183,-0.095l0.182,-0.097l0.182,-0.098l0.18,-0.099l0.181,-0.1l0.179,-0.101l0.179,-0.103l0.179,-0.103l0.177,-0.104l0.177,-0.105l0.177,-0.107l0.175,-0.107l0.175,-0.109l0.086,-0.053l0.399,0.635Zm-40.067,-3.087l0.159,0.129l0.16,0.128l0.161,0.127l0.162,0.126l0.162,0.125l0.163,0.124l0.164,0.124l0.165,0.122l0.165,0.121l0.166,0.121l0.167,0.119l0.168,0.118l0.168,0.118l0.111,0.076l-0.425,0.618l-0.113,-0.078l-0.172,-0.12l-0.171,-0.121l-0.171,-0.122l-0.17,-0.123l-0.169,-0.124l-0.168,-0.125l-0.168,-0.126l-0.166,-0.127l-0.166,-0.128l-0.165,-0.129l-0.165,-0.129l-0.163,-0.131l-0.163,-0.132l-0.107,-0.088l0.476,-0.58l0.105,0.087Zm43.713,0.455l-0.154,0.126l-0.163,0.132l-0.163,0.131l-0.164,0.129l-0.165,0.129l-0.166,0.128l-0.167,0.127l-0.168,0.126l-0.168,0.125l-0.169,0.124l-0.17,0.123l-0.17,0.122l-0.172,0.121l-0.172,0.12l-0.063,0.044l-0.425,-0.618l0.061,-0.042l0.169,-0.118l0.167,-0.118l0.167,-0.119l0.166,-0.121l0.166,-0.121l0.164,-0.122l0.164,-0.124l0.163,-0.124l0.163,-0.125l0.161,-0.126l0.161,-0.127l0.16,-0.128l0.159,-0.129l0.153,-0.125l0.475,0.58Zm-47.009,-3.521l0.141,0.148l0.142,0.148l0.142,0.147l0.144,0.146l0.144,0.145l0.146,0.144l0.146,0.143l0.147,0.143l0.147,0.142l0.149,0.14l0.149,0.14l0.151,0.139l0.151,0.138l0.152,0.138l0.025,0.022l-0.499,0.56l-0.027,-0.024l-0.155,-0.14l-0.155,-0.142l-0.153,-0.142l-0.153,-0.143l-0.152,-0.143l-0.151,-0.145l-0.15,-0.146l-0.149,-0.146l-0.149,-0.148l-0.147,-0.148l-0.147,-0.149l-0.146,-0.15l-0.145,-0.151l-0.143,-0.152l-0.025,-0.026l0.547,-0.513l0.023,0.025Zm50.289,0.444l-0.066,0.07l-0.144,0.152l-0.145,0.151l-0.146,0.15l-0.146,0.149l-0.148,0.148l-0.148,0.148l-0.149,0.146l-0.151,0.146l-0.151,0.145l-0.151,0.143l-0.153,0.143l-0.154,0.142l-0.154,0.142l-0.137,0.123l-0.503,-0.556l0.135,-0.123l0.152,-0.138l0.15,-0.139l0.149,-0.14l0.149,-0.14l0.148,-0.142l0.147,-0.143l0.146,-0.143l0.145,-0.144l0.144,-0.145l0.144,-0.146l0.143,-0.147l0.141,-0.148l0.141,-0.148l0.064,-0.069l0.548,0.513Zm-53.036,-3.751l0.121,0.165l0.122,0.165l0.124,0.163l0.124,0.163l0.125,0.163l0.127,0.161l0.127,0.161l0.128,0.16l0.129,0.159l0.13,0.158l0.131,0.158l0.132,0.156l0.132,0.156l0.089,0.103l-0.568,0.49l-0.09,-0.105l-0.136,-0.159l-0.135,-0.16l-0.133,-0.161l-0.133,-0.162l-0.132,-0.163l-0.131,-0.163l-0.13,-0.164l-0.129,-0.165l-0.128,-0.166l-0.127,-0.167l-0.126,-0.167l-0.125,-0.168l-0.124,-0.169l-0.082,-0.113l0.607,-0.44l0.081,0.111Zm55.895,0.28l-0.117,0.162l-0.124,0.169l-0.126,0.168l-0.126,0.167l-0.127,0.167l-0.128,0.166l-0.129,0.165l-0.13,0.164l-0.131,0.163l-0.131,0.163l-0.133,0.162l-0.134,0.161l-0.135,0.16l-0.135,0.159l-0.051,0.059l-0.568,-0.489l0.049,-0.058l0.133,-0.156l0.132,-0.156l0.131,-0.158l0.13,-0.158l0.129,-0.159l0.128,-0.16l0.127,-0.161l0.126,-0.161l0.125,-0.163l0.125,-0.163l0.123,-0.163l0.122,-0.165l0.122,-0.165l0.116,-0.16l0.607,0.44Zm-58.314,-4.099l0.099,0.18l0.101,0.181l0.101,0.179l0.102,0.179l0.103,0.178l0.105,0.178l0.105,0.176l0.106,0.177l0.108,0.175l0.108,0.175l0.11,0.174l0.11,0.173l0.112,0.173l0.112,0.172l0.021,0.03l-0.625,0.415l-0.022,-0.033l-0.115,-0.175l-0.114,-0.177l-0.113,-0.177l-0.112,-0.178l-0.111,-0.178l-0.109,-0.18l-0.109,-0.18l-0.108,-0.18l-0.106,-0.182l-0.106,-0.182l-0.104,-0.183l-0.104,-0.183l-0.102,-0.184l-0.101,-0.185l-0.008,-0.014l0.66,-0.357l0.006,0.013Zm60.704,0.29l-0.036,0.068l-0.101,0.185l-0.103,0.184l-0.103,0.183l-0.105,0.183l-0.105,0.182l-0.107,0.182l-0.108,0.18l-0.108,0.18l-0.11,0.18l-0.111,0.178l-0.112,0.178l-0.113,0.177l-0.114,0.177l-0.103,0.157l-0.627,-0.411l0.102,-0.155l0.111,-0.173l0.111,-0.173l0.109,-0.174l0.109,-0.175l0.107,-0.175l0.106,-0.177l0.106,-0.176l0.104,-0.178l0.103,-0.178l0.103,-0.179l0.101,-0.179l0.1,-0.181l0.099,-0.18l0.035,-0.066l0.66,0.356Zm-62.532,-4.234l0.076,0.194l0.077,0.193l0.078,0.193l0.079,0.192l0.081,0.191l0.081,0.191l0.083,0.19l0.084,0.19l0.085,0.189l0.086,0.189l0.087,0.187l0.088,0.188l0.089,0.186l0.075,0.154l-0.675,0.327l-0.075,-0.155l-0.091,-0.191l-0.091,-0.191l-0.089,-0.192l-0.088,-0.193l-0.086,-0.193l-0.086,-0.194l-0.084,-0.194l-0.084,-0.195l-0.082,-0.196l-0.081,-0.196l-0.08,-0.197l-0.079,-0.198l-0.077,-0.198l-0.025,-0.066l0.7,-0.269l0.024,0.064Zm64.411,0.149l-0.046,0.122l-0.078,0.198l-0.079,0.198l-0.08,0.197l-0.081,0.196l-0.082,0.196l-0.083,0.195l-0.085,0.194l-0.085,0.194l-0.087,0.193l-0.088,0.193l-0.089,0.192l-0.09,0.191l-0.092,0.191l-0.049,0.101l-0.674,-0.328l0.048,-0.099l0.089,-0.186l0.089,-0.188l0.087,-0.187l0.086,-0.189l0.085,-0.189l0.083,-0.19l0.083,-0.19l0.082,-0.191l0.08,-0.191l0.079,-0.192l0.078,-0.193l0.077,-0.193l0.076,-0.194l0.046,-0.12l0.7,0.269Zm-65.731,-4.345l0.051,0.205l0.052,0.205l0.053,0.204l0.054,0.203l0.056,0.203l0.057,0.203l0.058,0.201l0.059,0.202l0.061,0.201l0.062,0.2l0.063,0.2l0.064,0.199l0.065,0.199l0.043,0.127l-0.711,0.239l-0.044,-0.129l-0.066,-0.204l-0.066,-0.203l-0.064,-0.205l-0.063,-0.205l-0.062,-0.205l-0.061,-0.206l-0.059,-0.206l-0.059,-0.207l-0.056,-0.208l-0.056,-0.208l-0.055,-0.208l-0.053,-0.209l-0.052,-0.21l-0.016,-0.069l0.729,-0.176l0.016,0.067Zm67.065,0.05l-0.031,0.128l-0.052,0.21l-0.053,0.209l-0.054,0.208l-0.056,0.208l-0.057,0.208l-0.058,0.207l-0.06,0.206l-0.06,0.206l-0.062,0.205l-0.063,0.205l-0.065,0.205l-0.065,0.203l-0.067,0.204l-0.024,0.071l-0.711,-0.238l0.023,-0.07l0.066,-0.199l0.064,-0.199l0.063,-0.2l0.061,-0.2l0.061,-0.201l0.059,-0.202l0.058,-0.201l0.057,-0.203l0.056,-0.203l0.054,-0.203l0.054,-0.204l0.052,-0.205l0.05,-0.205l0.031,-0.125l0.729,0.175Zm-67.815,-4.245l0.026,0.214l0.026,0.214l0.028,0.213l0.029,0.212l0.03,0.213l0.032,0.211l0.033,0.212l0.035,0.211l0.035,0.21l0.037,0.21l0.038,0.21l0.04,0.209l0.03,0.156l-0.736,0.144l-0.031,-0.159l-0.04,-0.214l-0.039,-0.214l-0.038,-0.214l-0.036,-0.216l-0.035,-0.215l-0.034,-0.216l-0.033,-0.217l-0.031,-0.216l-0.029,-0.218l-0.029,-0.217l-0.027,-0.219l-0.026,-0.218l-0.023,-0.212l0.745,-0.083l0.023,0.209Zm68.58,-0.186l-0.006,0.053l-0.024,0.219l-0.026,0.218l-0.027,0.219l-0.028,0.217l-0.03,0.218l-0.031,0.216l-0.032,0.217l-0.034,0.216l-0.035,0.215l-0.037,0.216l-0.037,0.214l-0.039,0.214l-0.041,0.214l-0.019,0.1l-0.736,-0.144l0.019,-0.097l0.039,-0.209l0.038,-0.21l0.037,-0.21l0.036,-0.21l0.034,-0.211l0.033,-0.212l0.032,-0.211l0.03,-0.213l0.029,-0.212l0.028,-0.213l0.027,-0.214l0.025,-0.214l0.024,-0.214l0.005,-0.05l0.746,0.078Zm-68.795,-4.416l-0.001,0.028l-0.003,0.22l-0.003,0.22l0,0.22l0,0.221l0.003,0.22l0.003,0.22l0.005,0.219l0.006,0.219l0.008,0.219l0.009,0.218l0.01,0.219l0.012,0.217l0.013,0.218l0.004,0.054l-0.749,0.05l-0.003,-0.057l-0.014,-0.222l-0.012,-0.222l-0.01,-0.223l-0.01,-0.223l-0.008,-0.224l-0.006,-0.224l-0.005,-0.224l-0.003,-0.225l-0.003,-0.224l0,-0.226l0,-0.225l0.003,-0.225l0.003,-0.224l0.001,-0.03l0.75,0.016Zm68.986,0.014l0.004,0.224l0.002,0.225l0.001,0.225l-0.001,0.226l-0.002,0.224l-0.004,0.225l-0.005,0.224l-0.006,0.224l-0.008,0.224l-0.009,0.223l-0.011,0.223l-0.012,0.222l-0.013,0.219l-0.749,-0.045l0.013,-0.217l0.012,-0.217l0.011,-0.219l0.009,-0.218l0.007,-0.219l0.007,-0.219l0.004,-0.219l0.004,-0.22l0.002,-0.22l0.001,-0.221l-0.001,-0.22l-0.002,-0.22l-0.004,-0.22l-0.002,-0.088l0.75,-0.017l0.002,0.091Zm-68.617,-4.4l-0.015,0.095l-0.03,0.212l-0.029,0.213l-0.028,0.213l-0.026,0.213l-0.026,0.214l-0.023,0.214l-0.023,0.215l-0.021,0.215l-0.02,0.215l-0.019,0.216l-0.017,0.216l-0.016,0.217l-0.014,0.217l-0.002,0.031l-0.749,-0.045l0.003,-0.034l0.014,-0.221l0.016,-0.222l0.018,-0.221l0.019,-0.22l0.02,-0.22l0.022,-0.22l0.023,-0.219l0.024,-0.219l0.026,-0.219l0.027,-0.218l0.029,-0.218l0.029,-0.217l0.031,-0.217l0.015,-0.097l0.742,0.111Zm68.254,-0.014l0.031,0.217l0.03,0.217l0.028,0.218l0.027,0.218l0.026,0.219l0.024,0.219l0.024,0.219l0.021,0.22l0.02,0.22l0.019,0.22l0.018,0.221l0.016,0.222l0.013,0.195l-0.748,0.05l-0.013,-0.193l-0.016,-0.217l-0.017,-0.216l-0.019,-0.216l-0.019,-0.215l-0.022,-0.215l-0.022,-0.215l-0.024,-0.214l-0.025,-0.214l-0.027,-0.213l-0.028,-0.213l-0.029,-0.213l-0.03,-0.212l-0.023,-0.155l0.741,-0.111l0.024,0.157Zm-67.323,-4.285l-0.012,0.042l-0.057,0.202l-0.056,0.203l-0.054,0.204l-0.053,0.204l-0.052,0.204l-0.051,0.205l-0.05,0.206l-0.048,0.205l-0.047,0.207l-0.046,0.207l-0.044,0.207l-0.044,0.208l-0.042,0.208l-0.027,0.141l-0.736,-0.144l0.028,-0.143l0.043,-0.213l0.044,-0.212l0.046,-0.212l0.046,-0.212l0.048,-0.21l0.05,-0.211l0.05,-0.21l0.052,-0.209l0.053,-0.209l0.055,-0.209l0.056,-0.208l0.056,-0.207l0.059,-0.207l0.012,-0.044l0.721,0.207Zm66.369,-0.163l0.058,0.207l0.057,0.207l0.056,0.208l0.054,0.209l0.053,0.209l0.052,0.209l0.051,0.21l0.049,0.211l0.048,0.21l0.047,0.212l0.045,0.212l0.045,0.212l0.043,0.213l0.016,0.084l-0.736,0.144l-0.016,-0.082l-0.042,-0.208l-0.043,-0.208l-0.045,-0.207l-0.046,-0.207l-0.047,-0.207l-0.048,-0.205l-0.05,-0.206l-0.05,-0.205l-0.052,-0.204l-0.054,-0.204l-0.054,-0.204l-0.056,-0.203l-0.057,-0.202l-0.028,-0.1l0.72,-0.207l0.03,0.102Zm-64.887,-3.979l-0.025,0.057l-0.081,0.19l-0.081,0.192l-0.079,0.192l-0.078,0.193l-0.077,0.193l-0.076,0.194l-0.075,0.194l-0.073,0.195l-0.072,0.195l-0.072,0.197l-0.07,0.196l-0.069,0.197l-0.067,0.198l-0.053,0.158l-0.711,-0.239l0.053,-0.16l0.07,-0.202l0.07,-0.201l0.072,-0.201l0.072,-0.201l0.074,-0.2l0.076,-0.199l0.076,-0.199l0.077,-0.198l0.079,-0.197l0.08,-0.197l0.081,-0.196l0.082,-0.196l0.084,-0.195l0.025,-0.059l0.688,0.299Zm63.385,-0.24l0.083,0.195l0.082,0.196l0.081,0.196l0.08,0.197l0.079,0.197l0.078,0.198l0.076,0.199l0.075,0.199l0.074,0.2l0.073,0.201l0.071,0.201l0.071,0.201l0.069,0.202l0.034,0.103l-0.711,0.238l-0.033,-0.1l-0.068,-0.198l-0.069,-0.197l-0.07,-0.196l-0.071,-0.197l-0.072,-0.195l-0.074,-0.195l-0.075,-0.194l-0.076,-0.194l-0.077,-0.193l-0.078,-0.193l-0.079,-0.192l-0.08,-0.192l-0.082,-0.19l-0.049,-0.113l0.688,-0.299l0.05,0.115Zm-61.378,-3.677l-0.065,0.109l-0.105,0.177l-0.103,0.179l-0.102,0.178l-0.101,0.18l-0.101,0.18l-0.099,0.181l-0.098,0.182l-0.097,0.182l-0.095,0.182l-0.095,0.184l-0.094,0.184l-0.093,0.185l-0.091,0.185l-0.056,0.115l-0.674,-0.328l0.056,-0.117l0.094,-0.189l0.095,-0.189l0.095,-0.188l0.097,-0.188l0.098,-0.187l0.099,-0.186l0.101,-0.185l0.101,-0.185l0.102,-0.184l0.104,-0.184l0.104,-0.183l0.106,-0.182l0.106,-0.181l0.067,-0.111l0.644,0.384Zm59.368,-0.273l0.107,0.181l0.105,0.182l0.105,0.183l0.103,0.184l0.103,0.184l0.101,0.185l0.1,0.185l0.099,0.186l0.098,0.187l0.097,0.188l0.096,0.188l0.094,0.189l0.094,0.189l0.03,0.062l-0.674,0.328l-0.029,-0.06l-0.092,-0.185l-0.093,-0.185l-0.093,-0.184l-0.095,-0.184l-0.096,-0.182l-0.097,-0.182l-0.098,-0.182l-0.099,-0.181l-0.1,-0.18l-0.101,-0.18l-0.103,-0.178l-0.103,-0.179l-0.104,-0.177l-0.096,-0.161l0.644,-0.384l0.097,0.163Zm-56.876,-3.351l-0.006,0.008l-0.127,0.162l-0.125,0.162l-0.124,0.163l-0.124,0.164l-0.122,0.165l-0.121,0.165l-0.121,0.166l-0.119,0.167l-0.119,0.167l-0.117,0.168l-0.117,0.17l-0.116,0.169l-0.114,0.171l-0.114,0.171l-0.027,0.041l-0.627,-0.41l0.028,-0.044l0.116,-0.175l0.117,-0.174l0.118,-0.173l0.119,-0.173l0.12,-0.172l0.122,-0.171l0.122,-0.171l0.123,-0.169l0.124,-0.169l0.125,-0.168l0.126,-0.168l0.127,-0.166l0.128,-0.166l0.129,-0.165l0.008,-0.01l0.588,0.465Zm54.269,-0.455l0.129,0.165l0.128,0.166l0.127,0.166l0.126,0.168l0.126,0.168l0.124,0.169l0.123,0.169l0.122,0.171l0.121,0.171l0.12,0.172l0.119,0.173l0.118,0.173l0.117,0.174l0.111,0.168l-0.625,0.415l-0.11,-0.166l-0.114,-0.171l-0.116,-0.169l-0.116,-0.17l-0.118,-0.168l-0.118,-0.167l-0.12,-0.167l-0.12,-0.166l-0.122,-0.165l-0.122,-0.165l-0.123,-0.164l-0.125,-0.163l-0.125,-0.162l-0.126,-0.162l-0.044,-0.055l0.588,-0.466l0.045,0.058Zm-51.329,-2.823l-0.083,0.082l-0.146,0.144l-0.144,0.145l-0.144,0.146l-0.142,0.147l-0.142,0.147l-0.141,0.149l-0.14,0.149l-0.139,0.151l-0.138,0.151l-0.137,0.152l-0.137,0.152l-0.135,0.154l-0.135,0.154l-0.104,0.121l-0.568,-0.49l0.105,-0.122l0.138,-0.158l0.138,-0.157l0.14,-0.156l0.14,-0.155l0.141,-0.154l0.142,-0.154l0.144,-0.152l0.143,-0.152l0.145,-0.151l0.146,-0.15l0.147,-0.149l0.147,-0.149l0.149,-0.147l0.084,-0.083l0.526,0.535Zm48.404,-0.452l0.148,0.147l0.148,0.149l0.146,0.149l0.146,0.15l0.145,0.151l0.144,0.152l0.143,0.152l0.142,0.154l0.141,0.154l0.141,0.155l0.139,0.156l0.138,0.157l0.138,0.158l0.066,0.076l-0.568,0.49l-0.065,-0.075l-0.134,-0.154l-0.136,-0.154l-0.136,-0.152l-0.138,-0.152l-0.138,-0.151l-0.139,-0.151l-0.14,-0.149l-0.141,-0.149l-0.141,-0.147l-0.143,-0.147l-0.144,-0.146l-0.144,-0.145l-0.145,-0.144l-0.126,-0.124l0.525,-0.536l0.128,0.126Zm-45.073,-2.421l-0.01,0.007l-0.163,0.124l-0.162,0.126l-0.162,0.126l-0.161,0.127l-0.16,0.128l-0.159,0.129l-0.158,0.13l-0.158,0.131l-0.157,0.131l-0.156,0.133l-0.155,0.134l-0.155,0.134l-0.153,0.136l-0.153,0.136l-0.039,0.035l-0.503,-0.556l0.041,-0.037l0.156,-0.139l0.157,-0.139l0.158,-0.137l0.158,-0.137l0.16,-0.135l0.16,-0.135l0.161,-0.134l0.162,-0.132l0.163,-0.132l0.163,-0.131l0.165,-0.13l0.165,-0.129l0.166,-0.128l0.166,-0.127l0.012,-0.008l0.451,0.599Zm41.594,-0.591l0.167,0.127l0.166,0.128l0.165,0.129l0.164,0.13l0.163,0.131l0.163,0.132l0.162,0.132l0.161,0.134l0.16,0.135l0.16,0.135l0.159,0.137l0.157,0.137l0.157,0.139l0.152,0.135l-0.499,0.56l-0.15,-0.134l-0.154,-0.136l-0.154,-0.134l-0.156,-0.134l-0.156,-0.133l-0.157,-0.131l-0.157,-0.131l-0.159,-0.13l-0.159,-0.129l-0.16,-0.128l-0.161,-0.127l-0.161,-0.126l-0.163,-0.126l-0.163,-0.124l-0.058,-0.043l0.451,-0.6l0.06,0.045Zm-37.92,-1.833l-0.088,0.05l-0.178,0.103l-0.178,0.105l-0.177,0.105l-0.176,0.106l-0.176,0.108l-0.175,0.108l-0.174,0.109l-0.173,0.111l-0.173,0.111l-0.172,0.113l-0.171,0.113l-0.171,0.115l-0.17,0.115l-0.132,0.092l-0.426,-0.618l0.135,-0.093l0.173,-0.118l0.175,-0.117l0.175,-0.116l0.176,-0.115l0.176,-0.114l0.177,-0.112l0.178,-0.112l0.179,-0.111l0.179,-0.11l0.181,-0.108l0.18,-0.108l0.182,-0.107l0.182,-0.105l0.09,-0.052l0.372,0.652Zm34.245,-0.6l0.182,0.105l0.182,0.107l0.181,0.108l0.18,0.108l0.179,0.11l0.179,0.111l0.178,0.112l0.177,0.112l0.177,0.114l0.176,0.115l0.175,0.116l0.174,0.117l0.174,0.118l0.084,0.059l-0.425,0.617l-0.083,-0.057l-0.17,-0.115l-0.17,-0.115l-0.172,-0.113l-0.172,-0.113l-0.172,-0.111l-0.174,-0.111l-0.174,-0.109l-0.175,-0.108l-0.175,-0.108l-0.177,-0.106l-0.177,-0.105l-0.177,-0.105l-0.179,-0.103l-0.14,-0.08l0.372,-0.652l0.142,0.082Zm-30.29,-1.331l-0.149,0.062l-0.192,0.08l-0.191,0.082l-0.19,0.082l-0.19,0.084l-0.189,0.085l-0.189,0.086l-0.188,0.087l-0.187,0.088l-0.187,0.089l-0.186,0.091l-0.186,0.091l-0.184,0.093l-0.185,0.093l-0.071,0.037l-0.344,-0.666l0.073,-0.038l0.189,-0.096l0.189,-0.094l0.189,-0.094l0.191,-0.092l0.19,-0.092l0.192,-0.09l0.192,-0.089l0.193,-0.088l0.193,-0.086l0.194,-0.086l0.195,-0.084l0.195,-0.084l0.196,-0.082l0.151,-0.062l0.286,0.693Zm26.114,-0.712l0.196,0.081l0.196,0.082l0.195,0.084l0.195,0.084l0.194,0.086l0.194,0.086l0.192,0.088l0.192,0.089l0.192,0.09l0.191,0.092l0.19,0.092l0.19,0.094l0.189,0.094l0.188,0.096l0.02,0.01l-0.344,0.667l-0.018,-0.01l-0.184,-0.093l-0.185,-0.093l-0.186,-0.091l-0.186,-0.091l-0.186,-0.089l-0.188,-0.088l-0.188,-0.087l-0.188,-0.086l-0.19,-0.085l-0.19,-0.084l-0.19,-0.082l-0.191,-0.082l-0.192,-0.08l-0.192,-0.08l-0.009,-0.003l0.282,-0.695l0.011,0.004Zm-21.943,-0.69l-0.167,0.045l-0.203,0.055l-0.202,0.057l-0.202,0.058l-0.202,0.06l-0.201,0.06l-0.2,0.062l-0.2,0.063l-0.2,0.064l-0.199,0.065l-0.198,0.067l-0.198,0.067l-0.197,0.069l-0.197,0.07l-0.035,0.013l-0.256,-0.705l0.037,-0.014l0.201,-0.071l0.202,-0.071l0.202,-0.069l0.203,-0.068l0.203,-0.067l0.204,-0.065l0.205,-0.064l0.205,-0.063l0.205,-0.062l0.206,-0.061l0.207,-0.059l0.207,-0.058l0.207,-0.057l0.169,-0.045l0.194,0.724Zm17.686,-0.735l0.208,0.056l0.208,0.057l0.207,0.058l0.206,0.059l0.206,0.061l0.206,0.062l0.205,0.063l0.204,0.064l0.204,0.065l0.203,0.067l0.203,0.068l0.202,0.069l0.202,0.071l0.181,0.064l-0.251,0.707l-0.179,-0.064l-0.197,-0.069l-0.198,-0.067l-0.199,-0.067l-0.199,-0.065l-0.199,-0.064l-0.2,-0.063l-0.201,-0.062l-0.201,-0.06l-0.201,-0.06l-0.202,-0.058l-0.203,-0.057l-0.203,-0.055l-0.204,-0.055l-0.016,-0.004l0.189,-0.726l0.019,0.005Zm-13.371,-0.114l-0.107,0.014l-0.213,0.029l-0.212,0.03l-0.212,0.032l-0.212,0.033l-0.211,0.034l-0.21,0.036l-0.21,0.037l-0.21,0.038l-0.209,0.039l-0.209,0.041l-0.209,0.042l-0.208,0.043l-0.207,0.045l-0.051,0.011l-0.161,-0.732l0.052,-0.012l0.212,-0.046l0.213,-0.044l0.213,-0.043l0.213,-0.041l0.214,-0.041l0.215,-0.039l0.214,-0.037l0.216,-0.037l0.215,-0.035l0.217,-0.033l0.216,-0.033l0.217,-0.031l0.218,-0.03l0.109,-0.014l0.097,0.744Zm9.108,-0.73l0.217,0.03l0.217,0.031l0.217,0.033l0.216,0.033l0.216,0.035l0.215,0.037l0.215,0.037l0.214,0.039l0.214,0.041l0.214,0.041l0.213,0.043l0.212,0.044l0.206,0.045l-0.157,0.733l-0.204,-0.044l-0.208,-0.043l-0.208,-0.042l-0.209,-0.041l-0.209,-0.039l-0.21,-0.038l-0.21,-0.037l-0.211,-0.036l-0.211,-0.034l-0.211,-0.033l-0.212,-0.032l-0.213,-0.03l-0.213,-0.029l-0.166,-0.022l0.096,-0.744l0.17,0.022Zm-4.715,0.442l-0.163,0l-0.22,0.003l-0.22,0.003l-0.22,0.005l-0.219,0.006l-0.219,0.008l-0.219,0.009l-0.218,0.01l-0.218,0.012l-0.217,0.013l-0.217,0.014l-0.217,0.016l-0.216,0.017l-0.152,0.013l-0.064,-0.747l0.154,-0.013l0.221,-0.018l0.222,-0.016l0.221,-0.015l0.223,-0.013l0.222,-0.012l0.223,-0.011l0.223,-0.009l0.224,-0.008l0.224,-0.006l0.225,-0.005l0.224,-0.003l0.225,-0.003l0.165,0l0.003,0.75Zm0.283,-0.75l0.225,0.003l0.225,0.003l0.224,0.005l0.224,0.006l0.224,0.008l0.223,0.009l0.223,0.011l0.223,0.012l0.222,0.013l0.222,0.015l0.221,0.016l0.221,0.018l0.094,0.008l-0.064,0.747l-0.091,-0.008l-0.217,-0.017l-0.216,-0.016l-0.217,-0.014l-0.218,-0.013l-0.218,-0.012l-0.218,-0.01l-0.219,-0.009l-0.218,-0.008l-0.22,-0.006l-0.219,-0.005l-0.22,-0.003l-0.221,-0.003l-0.223,0l0.003,-0.75l0.225,0Z" style="fill:#aab3bd;"/></g><path id="Shape-7" d="M50.978,32.375c-0.108,-0.409 -0.426,-0.732 -0.824,-0.84c-0.093,-0.024 -0.191,-0.038 -0.291,-0.038l-20.938,0c-0.1,0 -0.197,0.014 -0.29,0.039c-0.399,0.107 -0.718,0.43 -0.826,0.839c-0.026,0.099 -0.04,0.203 -0.04,0.311l0,12.613c0,0.655 0.521,1.189 1.156,1.189l20.938,0c0.635,0 1.155,-0.534 1.155,-1.189l0,-12.613c0,-0.108 -0.014,-0.212 -0.04,-0.311Zm-2.141,0.311l-6.232,5.449l-0.634,0.555c-0.103,0.09 -0.23,0.173 -0.379,0.248c-0.538,0.273 -1.344,0.439 -2.199,0.439c-0.853,0 -1.66,-0.166 -2.198,-0.439c-0.148,-0.075 -0.275,-0.158 -0.378,-0.248l-0.634,-0.555l-6.232,-5.449l18.886,0Zm-19.912,0.664l6.346,5.549l-6.346,5.419l0,-10.968Zm0.74,11.949l6.544,-5.588c1.511,1.139 4.859,1.139 6.37,0l6.544,5.588l-19.458,0Zm20.198,-0.981l-6.346,-5.419l6.346,-5.549l0,10.968Z" style="fill:#00b440;fill-rule:nonzero;"/></g></svg>